<svg width="149" height="35" viewBox="0 0 149 35" fill="none" xmlns="http://www.w3.org/2000/svg">
<g clip-path="url(#clip0_436_458)">
<path d="M26.554 11.3283L26.5778 24.3234L26.4824 24.3711L29.5106 26.1356L29.6299 26.0402V9.53996L29.606 9.51611L26.554 11.3283Z" fill="url(#paint0_linear_436_458)"/>
<path d="M15.3232 30.833V34.3858L29.1529 26.3979L29.5106 26.1595L26.4824 24.395L15.3232 30.833Z" fill="url(#paint1_linear_436_458)"/>
<path d="M15.3232 1.29004V4.84284L26.5539 11.3285L29.606 9.54016L15.3232 1.29004Z" fill="url(#paint2_linear_436_458)"/>
<path d="M15.3233 1.29004L1.06445 9.54016L4.11652 11.3285L15.3233 4.86668V1.29004Z" fill="url(#paint3_linear_436_458)"/>
<path d="M0.993164 9.5638V25.5395L1.04085 26.1356L1.13623 26.1833L4.1883 24.3949L4.06908 24.3234V11.3283L4.11677 11.3044L1.0647 9.51611L0.993164 9.5638Z" fill="url(#paint4_linear_436_458)"/>
<path d="M1.13672 26.1833L15.3241 34.3858V30.833L4.18879 24.395L1.13672 26.1833Z" fill="url(#paint5_linear_436_458)"/>
<path d="M8.34668 21.7292L13.6878 24.8051L16.4776 23.1837L11.1365 20.084L8.34668 21.7292Z" fill="url(#paint6_linear_436_458)"/>
<path d="M11.1365 20.1078V16.7934V13.9321L8.34668 15.5297V21.7054L11.1365 20.1078Z" fill="url(#paint7_linear_436_458)"/>
<path d="M22.3907 14.0993L17.0495 10.9995L14.2598 12.6209L19.6247 15.7207L22.3907 14.0993Z" fill="url(#paint8_linear_436_458)"/>
<path d="M19.6016 15.6967V19.011V21.8724L22.3913 20.2748V14.0991L19.6016 15.6967Z" fill="url(#paint9_linear_436_458)"/>
<path d="M37.3151 12.0623V9.60634H45.8752C48.3073 9.60634 49.5472 10.7986 49.5711 13.2068V21.8623H39.4611C37.1959 21.8623 36.0752 20.837 36.0752 18.8102V17.1173C36.0752 15.0428 37.1243 14.0175 39.1988 13.9937H45.6844V16.4496H40.2956C39.1273 16.4496 38.5312 16.9265 38.5312 17.8803C38.5312 18.9056 39.0796 19.4063 40.1764 19.4063H47.1151V13.9698C47.1151 12.6823 46.5667 12.0385 45.4698 12.0385L37.3151 12.0623ZM63.4723 26.1543V12.0385H56.9866C55.6037 12.0623 54.8883 12.7061 54.8883 13.946V17.7611C54.793 18.5956 55.3891 19.3348 56.1998 19.454C56.319 19.4779 56.4621 19.4779 56.6051 19.454H62.0178V21.8861H56.1044C53.6723 21.8861 52.4562 20.6701 52.4324 18.2857V13.3737C52.4562 10.8939 53.6961 9.63019 56.1282 9.60634H65.9282V26.1543H63.4723ZM71.2217 9.63018V17.8803C71.1263 18.6433 71.6747 19.3348 72.4377 19.4302C72.5569 19.454 72.6762 19.454 72.7954 19.4302H79.4241V9.63018H81.8801V21.8861H72.4377C70.0056 21.8861 68.7657 20.6462 68.7657 18.2141V9.63018H71.2217ZM86.3628 12.0623V9.63018H94.9229C97.355 9.63018 98.5949 10.8224 98.6187 13.2307V21.8861H88.5088C86.2436 21.8861 85.1229 20.8608 85.1229 18.8341V17.1411C85.1229 15.0667 86.172 14.0414 88.2465 14.0175H94.7321V16.4735H89.3433C88.1749 16.4735 87.5788 16.9504 87.5788 17.9042C87.5788 18.9295 88.1273 19.4302 89.2241 19.4302H96.1628V13.9937C96.1628 12.7061 95.6144 12.0623 94.5175 12.0623H86.3628ZM101.456 21.8623V13.2545C101.456 10.8462 102.696 9.65403 105.128 9.63018H110.088V12.0385H105.51C104.747 11.9192 104.031 12.4438 103.912 13.2307C103.888 13.3499 103.888 13.4691 103.912 13.5883V21.8861L101.456 21.8623ZM112.973 9.51096H115.453V21.8623H112.973V9.51096ZM115.453 7.22191H112.925V4.71826H115.453V7.22191ZM120.794 9.63018V17.8803C120.699 18.6433 121.247 19.3348 122.01 19.4302C122.129 19.454 122.248 19.454 122.368 19.4302H128.996V9.63018H131.452V21.8861H122.01C119.578 21.8861 118.338 20.6462 118.338 18.2141V9.63018H120.794Z" fill="#FEFEFE"/>
<path d="M133.455 9.70166H136.746L140.728 14.0413L144.71 9.70166H148L142.373 15.8296L148 21.9576H144.71L133.455 9.70166Z" fill="url(#paint10_linear_436_458)"/>
<path d="M136.746 22.0054H133.455L138.295 16.7358L139.965 18.5003L136.746 22.0054Z" fill="url(#paint11_linear_436_458)"/>
<path d="M102.482 27.847H104.938V28.6815H102.482V30.8991H101.433V25.5103H105.081V26.3925H102.482V27.847Z" fill="#FEFEFE"/>
<path d="M102.482 27.847H104.938V28.6815H102.482V30.8991H101.433V25.5103H105.081V26.3925H102.482V27.847Z" fill="#FEFEFE"/>
<path d="M109.397 30.923H108.348V25.5342H109.397V30.923Z" fill="#FEFEFE"/>
<path d="M109.397 30.923H108.348V25.5342H109.397V30.923Z" fill="#FEFEFE"/>
<path d="M117.003 25.5342H118.052V30.923H116.287L113.951 26.4164H113.903L113.998 30.923H112.949V25.5342H114.69L117.05 30.0408H117.074L117.003 25.5342Z" fill="#FEFEFE"/>
<path d="M117.003 25.5342H118.052V30.923H116.287L113.951 26.4164H113.903L113.998 30.923H112.949V25.5342H114.69L117.05 30.0408H117.074L117.003 25.5342Z" fill="#FEFEFE"/>
<path d="M123.822 30.923H122.773V26.4164H121.151V25.5342H125.443V26.4164H123.822V30.923Z" fill="#FEFEFE"/>
<path d="M123.822 30.923H122.773V26.4164H121.151V25.5342H125.443V26.4164H123.822V30.923Z" fill="#FEFEFE"/>
<path d="M129.497 27.7516H132.073V28.5862H129.497V30.0168H132.239V30.8991H128.448V25.5103H132.239V26.3925H129.521V27.7516H129.497Z" fill="#FEFEFE"/>
<path d="M129.497 27.7516H132.073V28.5862H129.497V30.0168H132.239V30.8991H128.448V25.5103H132.239V26.3925H129.521V27.7516H129.497Z" fill="#FEFEFE"/>
<path d="M138.916 27.3463V27.0602C138.916 26.4403 138.677 26.3926 137.747 26.3926C136.674 26.3926 136.508 26.5595 136.508 27.6086V28.8008C136.508 29.8738 136.651 30.0884 137.747 30.0884C138.606 30.0884 138.987 30.0646 138.987 29.3016V29.0154H140.037V29.3731C140.06 30.9945 139.107 30.9468 137.747 30.9945C135.816 31.0661 135.458 30.4461 135.435 28.8724V27.6325C135.435 25.9157 136.126 25.5342 137.747 25.5342C139.13 25.5342 139.917 25.5342 139.989 27.0841V27.3702H138.916V27.3463Z" fill="#FEFEFE"/>
<path d="M138.916 27.3463V27.0602C138.916 26.4403 138.677 26.3926 137.747 26.3926C136.674 26.3926 136.508 26.5595 136.508 27.6086V28.8008C136.508 29.8738 136.651 30.0884 137.747 30.0884C138.606 30.0884 138.987 30.0646 138.987 29.3016V29.0154H140.037V29.3731C140.06 30.9945 139.107 30.9468 137.747 30.9945C135.816 31.0661 135.458 30.4461 135.435 28.8724V27.6325C135.435 25.9157 136.126 25.5342 137.747 25.5342C139.13 25.5342 139.917 25.5342 139.989 27.0841V27.3702H138.916V27.3463Z" fill="#FEFEFE"/>
<path d="M148.024 30.923H146.975V28.6339H144.4V30.923H143.351V25.5342H144.4V27.7279H146.975V25.5342H148.024V30.923Z" fill="#FEFEFE"/>
<path d="M148.024 30.923H146.975V28.6339H144.4V30.923H143.351V25.5342H144.4V27.7279H146.975V25.5342H148.024V30.923Z" fill="#FEFEFE"/>
</g>
<defs>
<linearGradient id="paint0_linear_436_458" x1="28.0718" y1="8.70498" x2="28.0718" y2="25.6434" gradientUnits="userSpaceOnUse">
<stop stop-color="#0F4394"/>
<stop offset="1" stop-color="#A1237D"/>
</linearGradient>
<linearGradient id="paint1_linear_436_458" x1="28.6012" y1="23.7841" x2="20.1331" y2="36.801" gradientUnits="userSpaceOnUse">
<stop stop-color="#8E499C"/>
<stop offset="1" stop-color="#292984"/>
</linearGradient>
<linearGradient id="paint2_linear_436_458" x1="27.4941" y1="11.144" x2="19.3595" y2="-1.82886" gradientUnits="userSpaceOnUse">
<stop stop-color="#00519D"/>
<stop offset="1" stop-color="#6CBE45"/>
</linearGradient>
<linearGradient id="paint3_linear_436_458" x1="15.5062" y1="1.53213" x2="2.59571" y2="11.5139" gradientUnits="userSpaceOnUse">
<stop stop-color="#85C441"/>
<stop offset="1" stop-color="#007F3F"/>
</linearGradient>
<linearGradient id="paint4_linear_436_458" x1="2.89064" y1="9.15995" x2="-7.6195" y2="19.1997" gradientUnits="userSpaceOnUse">
<stop stop-color="#0DB14B"/>
<stop offset="1" stop-color="#008DD1"/>
</linearGradient>
<linearGradient id="paint5_linear_436_458" x1="16.1495" y1="32.8547" x2="1.74725" y2="25.0458" gradientUnits="userSpaceOnUse">
<stop stop-color="#98258F"/>
<stop offset="1" stop-color="#005D9F"/>
</linearGradient>
<linearGradient id="paint6_linear_436_458" x1="13.2734" y1="20.01" x2="12.5953" y2="25.8782" gradientUnits="userSpaceOnUse">
<stop stop-color="#8AC640"/>
<stop offset="1" stop-color="#008AD0"/>
</linearGradient>
<linearGradient id="paint7_linear_436_458" x1="9.76894" y1="14.3232" x2="9.76894" y2="22.5201" gradientUnits="userSpaceOnUse">
<stop stop-color="#8AC640"/>
<stop offset="1" stop-color="#008AD0"/>
</linearGradient>
<linearGradient id="paint8_linear_436_458" x1="19.1737" y1="10.9073" x2="18.4959" y2="16.7756" gradientUnits="userSpaceOnUse">
<stop stop-color="#8AC640"/>
<stop offset="1" stop-color="#008AD0"/>
</linearGradient>
<linearGradient id="paint9_linear_436_458" x1="21.2894" y1="13.9345" x2="17.1062" y2="21.4325" gradientUnits="userSpaceOnUse">
<stop stop-color="#8AC640"/>
<stop offset="1" stop-color="#008AD0"/>
</linearGradient>
<linearGradient id="paint10_linear_436_458" x1="147.643" y1="9.42765" x2="137.657" y2="22.4876" gradientUnits="userSpaceOnUse">
<stop stop-color="#66BC46"/>
<stop offset="1" stop-color="#029869"/>
</linearGradient>
<linearGradient id="paint11_linear_436_458" x1="139.216" y1="21.4472" x2="134.4" y2="16.8676" gradientUnits="userSpaceOnUse">
<stop stop-color="#7B51A1"/>
<stop offset="1" stop-color="#006999"/>
</linearGradient>
<clipPath id="clip0_436_458">
<rect width="149" height="34" fill="white" transform="translate(0.000976562 0.534668)"/>
</clipPath>
</defs>
</svg>
