<svg width="241" height="14" viewBox="0 0 241 14" fill="none" xmlns="http://www.w3.org/2000/svg">
<path d="M29.3998 12.3005C29.3587 12.3005 29.3085 12.2731 29.2856 12.2366L25.9512 6.78091L24.1378 13.0218C24.1241 13.0629 24.083 13.0949 24.0419 13.0949H20.5431C20.5019 13.0949 20.4791 13.0629 20.4928 13.0218L24.1835 1.3435C24.1972 1.30698 24.2383 1.27046 24.2794 1.27046H25.5949C25.636 1.27046 25.6863 1.29785 25.7091 1.33437L30.2037 8.30119L34.6984 1.33437C34.7212 1.29785 34.7714 1.27046 34.8125 1.27046H36.128C36.1692 1.27046 36.2103 1.30242 36.224 1.3435L39.9147 13.0218C39.9284 13.0629 39.9055 13.0949 39.8644 13.0949H36.3656C36.3245 13.0949 36.2833 13.0629 36.2696 13.0218L34.4563 6.78091L31.1218 12.2366C31.099 12.2731 31.0488 12.3005 31.0077 12.3005H29.3998ZM20.6527 6.48416C20.6435 6.44763 20.6161 6.42481 20.5796 6.42481H10.6083C10.083 6.42481 9.65367 6.85395 9.65367 7.37898C9.65367 7.904 10.083 8.33315 10.6083 8.33315H16.5326C15.8292 10.1958 13.4449 11.5655 10.6083 11.5655C7.21908 11.5655 4.46933 9.6069 4.46933 7.18723C4.46933 4.76756 7.21908 2.80444 10.6083 2.80444C12.4582 2.80444 14.1209 3.38881 15.2445 4.31559C15.2445 4.31559 15.2537 4.32015 15.2582 4.32472C15.2719 4.33385 15.2856 4.33841 15.2993 4.33841H19.3737C19.4148 4.33841 19.4468 4.30646 19.4468 4.26537C19.4468 4.24711 19.4377 4.23341 19.4285 4.21971C19.4285 4.21971 19.4285 4.21515 19.4194 4.21058C17.6882 2.36159 14.3904 1.11523 10.6083 1.11523C5.02659 1.11523 0.5 3.83165 0.5 7.18266C0.5 10.5337 5.02659 13.2501 10.6083 13.2501C16.19 13.2501 20.7166 10.5337 20.7166 7.18266C20.7166 6.94526 20.6938 6.71243 20.6481 6.47959L20.6527 6.48416ZM59.9075 7.18723C59.9075 10.5382 55.3809 13.2547 49.7992 13.2547C44.2174 13.2547 39.6908 10.5382 39.6908 7.18723C39.6908 3.83622 44.2129 1.11523 49.7992 1.11523C55.3855 1.11523 59.9075 3.83165 59.9075 7.18266V7.18723ZM55.9336 7.18723C55.9336 4.76756 53.1838 2.809 49.7992 2.809C46.4145 2.809 43.6647 4.76756 43.6647 7.18723C43.6647 9.6069 46.4145 11.5655 49.7992 11.5655C53.1838 11.5655 55.9336 9.6069 55.9336 7.18723ZM61.3737 7.83095H65.2288L65.5851 6.54807H61.73L61.3737 7.83095ZM73.0579 11.9033L71.4638 12.5653L86.7473 1.27502H69.1616C67.7319 1.27502 66.5717 2.43464 66.5717 3.86361C66.5717 4.49364 66.8047 4.94105 66.8047 4.94105C70.0249 2.40725 74.8256 2.4666 77.452 2.4666L79.0461 1.80461L63.7672 13.0949H83.7646C85.1942 13.0949 86.3544 11.9353 86.3544 10.5063C86.3544 8.9997 85.7561 8.18249 85.7561 8.18249C83.1479 11.3965 77.9956 11.9033 73.067 11.9033H73.0579ZM133.877 3.5349C132.401 3.55316 130.944 3.891 129.674 4.45255C128.715 3.88644 127.45 3.5486 125.979 3.5349C124.07 3.57599 121.128 4.50277 120.393 7.24658L118.771 13.0949H122.627L124.198 7.43833C124.385 6.75808 125.034 6.24676 125.888 6.24676C126.742 6.24676 127.107 6.75808 126.92 7.43833L125.349 13.0949H129.204L130.775 7.43833C130.963 6.75808 131.611 6.24676 132.465 6.24676C133.32 6.24676 133.685 6.75808 133.498 7.43833L131.926 13.0949H135.782L137.403 7.24658C138.189 4.50277 135.768 3.57599 133.877 3.5349ZM91.0455 11.3281C91.0455 10.2643 90.1822 9.40145 89.1179 9.40145C88.0536 9.40145 87.1903 10.2643 87.1903 11.3281C87.1903 12.3918 88.0536 13.2547 89.1179 13.2547C90.1822 13.2547 91.0455 12.3918 91.0455 11.3281ZM114.044 3.53034C110.212 3.53034 106.493 5.7126 105.749 8.3925C105.004 11.0724 107.517 13.2547 111.349 13.2547C115.181 13.2547 118.899 11.0724 119.644 8.3925C120.388 5.7126 117.876 3.53034 114.044 3.53034ZM115.857 8.3925C115.519 9.61146 113.825 10.6067 112.08 10.6067C110.335 10.6067 109.193 9.61146 109.531 8.3925C109.869 7.17353 111.564 6.17827 113.308 6.17827C115.053 6.17827 116.195 7.17353 115.857 8.3925ZM101.076 9.40145C100.354 10.1182 99.1531 10.6067 97.929 10.6067C96.1841 10.6067 95.0422 9.61146 95.3802 8.3925C95.7182 7.17353 97.4128 6.17827 99.1577 6.17827C100.318 6.17827 101.213 6.62112 101.579 7.27397H105.612C105.484 5.12823 103.173 3.53034 99.8885 3.53034C96.0562 3.53034 92.3381 5.7126 91.5936 8.3925C90.8491 11.0724 93.3613 13.2547 97.1936 13.2547C100.528 13.2547 103.785 11.602 105.059 9.40145H101.076Z" fill="white"/>
<path d="M148.133 7.06851C149.147 7.23286 149.809 7.48852 150.12 7.84006C150.431 8.1916 150.586 8.57509 150.586 8.99511V13.0948H147.242V9.48817C147.242 9.23707 147.119 9.0225 146.881 8.84902C146.758 8.76227 146.562 8.69379 146.297 8.64357C146.032 8.58879 145.685 8.56596 145.246 8.56596V5.94998C145.849 5.94998 146.288 5.84954 146.562 5.65323C146.836 5.45235 146.977 5.19212 146.977 4.86798C146.977 4.57123 146.868 4.32469 146.648 4.12838C146.42 3.94576 146.151 3.84989 145.835 3.84989C145.488 3.84989 145.201 3.99142 144.972 4.26991C144.748 4.55296 144.634 4.83145 144.634 5.11908V13.0948H141.199V5.59388C141.199 4.69449 141.368 3.90924 141.706 3.23813C142.04 2.56701 142.57 2.05112 143.291 1.68132C144.022 1.31152 144.931 1.12891 146.032 1.12891C146.776 1.12891 147.471 1.24761 148.101 1.48957C148.731 1.73154 149.243 2.07851 149.631 2.53962C150.024 3.00072 150.252 3.54857 150.325 4.18773L150.362 4.68536C150.362 6.07781 149.617 6.87219 148.133 7.07307V7.06851Z" fill="white"/>
<path d="M155.968 1.11523V9.04535C155.968 9.41059 156.124 9.70734 156.444 9.94017C156.603 10.0589 156.772 10.1502 156.946 10.2141C157.115 10.278 157.316 10.31 157.526 10.31C157.91 10.31 158.271 10.1913 158.604 9.95843C158.896 9.73473 159.043 9.42428 159.043 9.03166V1.11523H162.359V8.78969C162.359 9.03622 162.336 9.28732 162.29 9.53842C162.249 9.79408 162.181 10.0452 162.089 10.2871C161.916 10.7665 161.642 11.2185 161.272 11.6339C160.892 12.054 160.376 12.4009 159.714 12.6794C159.385 12.8164 159.033 12.9214 158.663 12.9899C158.293 13.0583 157.887 13.0903 157.448 13.0903C156.389 13.0903 155.498 12.8849 154.772 12.474C154.045 12.0631 153.516 11.5198 153.173 10.8533C152.999 10.5337 152.872 10.1958 152.78 9.84886C152.698 9.50189 152.652 9.13666 152.652 8.75317V1.11523H155.968Z" fill="white"/>
<path d="M167.609 12.8206H164.32V2.42519C164.32 2.10561 164.403 1.81799 164.572 1.56689C164.745 1.31579 164.978 1.11492 165.28 0.968822C165.572 0.822729 165.892 0.745117 166.243 0.745117C166.709 0.745117 167.152 0.877514 167.573 1.13774C167.997 1.40254 168.372 1.79516 168.692 2.32475L171.56 7.34214V1.04643H174.849V11.2775C174.849 11.7751 174.684 12.2043 174.356 12.5558C174.022 12.9119 173.616 13.09 173.122 13.09C172.309 13.09 171.588 12.5604 170.948 11.5058L167.609 5.86294V12.8161V12.8206Z" fill="white"/>
<path d="M183.99 1.3208V4.04179H180.719C180.199 4.04179 179.915 4.20614 179.87 4.53485C179.92 4.8316 180.153 5.0964 180.578 5.32923C181.003 5.56663 181.377 5.77664 181.701 5.96839C182.026 6.16014 182.323 6.34275 182.592 6.51167C183.09 6.84495 183.515 7.17822 183.848 7.5115C184.182 7.84477 184.437 8.19174 184.602 8.54785C184.775 8.90395 184.858 9.29657 184.858 9.71659C184.858 9.87638 184.849 10.0362 184.83 10.2051C184.812 10.374 184.78 10.5475 184.734 10.7255C184.547 11.4469 184.09 12.0221 183.35 12.4513C182.61 12.8804 181.624 13.095 180.377 13.095H176.599V10.374H179.902C180.349 10.374 180.687 10.3147 180.916 10.196C181.149 10.0818 181.267 9.93116 181.267 9.74855C181.267 9.48832 181.13 9.27375 180.866 9.10026C180.569 8.87655 180.034 8.52045 179.267 8.02739C178.92 7.79455 178.605 7.57998 178.321 7.36997C178.061 7.18279 177.833 7.0093 177.632 6.84495C177.284 6.56189 177.001 6.22862 176.782 5.84512C176.563 5.46163 176.453 5.01878 176.453 4.50746C176.453 4.33854 176.471 4.13766 176.508 3.90939C176.599 3.43002 176.814 2.98718 177.152 2.59455C177.485 2.19736 177.924 1.88691 178.472 1.65864C179.02 1.43037 179.605 1.3208 180.24 1.3208H183.981H183.99Z" fill="white"/>
<path d="M190.101 1.3208V5.03248C190.101 5.93187 190.43 6.37928 191.083 6.37928C191.43 6.37928 191.695 6.2834 191.868 6.09165C192.046 5.89991 192.133 5.54837 192.133 5.03248V1.3208H195.436V5.38858C195.436 6.35188 195.189 7.12344 194.705 7.70324C194.216 8.28305 193.59 8.68024 192.841 8.89938V13.095H189.525V8.89938C188.534 8.64828 187.83 8.19631 187.415 7.55259C186.995 6.9043 186.789 6.2971 186.789 5.73099V1.3208H190.105H190.101Z" fill="white"/>
<path d="M204.847 1.3208V4.04179H201.581C201.065 4.04179 200.777 4.20614 200.732 4.53485C200.782 4.8316 201.015 5.0964 201.435 5.32923C201.86 5.56663 202.239 5.77664 202.563 5.96839C202.892 6.16014 203.185 6.34275 203.45 6.51167C203.947 6.84495 204.372 7.17822 204.71 7.5115C205.044 7.84477 205.299 8.19174 205.468 8.54785C205.633 8.90395 205.715 9.29657 205.715 9.71659C205.715 9.87638 205.706 10.0362 205.692 10.2051C205.674 10.374 205.637 10.5475 205.596 10.7255C205.414 11.4469 204.952 12.0221 204.212 12.4513C203.477 12.8804 202.49 13.095 201.243 13.095H197.466V10.374H200.768C201.211 10.374 201.554 10.3147 201.787 10.196C202.015 10.0818 202.134 9.93116 202.134 9.74855C202.134 9.48832 202.002 9.27375 201.732 9.10026C201.44 8.87655 200.905 8.52045 200.138 8.02739C199.791 7.79455 199.48 7.57998 199.192 7.36997C198.932 7.18279 198.699 7.0093 198.503 6.84495C198.156 6.56189 197.872 6.22862 197.653 5.84512C197.434 5.46163 197.324 5.01878 197.324 4.50746C197.324 4.33854 197.342 4.13766 197.379 3.90939C197.47 3.43002 197.685 2.98718 198.019 2.59455C198.352 2.19736 198.79 1.88691 199.343 1.65864C199.891 1.43037 200.476 1.3208 201.111 1.3208H204.847Z" fill="white"/>
<path d="M206.449 1.3208H214.625V4.14222H212.177V13.095H208.861V4.14222H206.449V1.3208Z" fill="white"/>
<path d="M225.004 1.3208V4.04179C224.748 4.04179 224.346 4.05092 223.817 4.06918C223.282 4.08744 222.876 4.09201 222.588 4.09201C222.209 4.09201 221.885 4.10114 221.633 4.1194C221.377 4.13766 221.181 4.16505 221.049 4.19701C220.514 4.29745 220.108 4.47093 219.824 4.72203C219.537 4.97313 219.254 5.37945 218.961 5.94556H225.004V8.51132H218.961C219.24 9.05917 219.528 9.45636 219.82 9.70746C220.112 9.95856 220.523 10.1366 221.053 10.2416C221.263 10.2736 221.542 10.2964 221.889 10.3147C222.241 10.3284 222.579 10.3375 222.912 10.3375L225.004 10.3694V13.0904H221.263C220.546 13.0904 219.852 12.958 219.167 12.6932C218.477 12.4284 217.856 12.0404 217.294 11.5245C216.732 11.0086 216.285 10.3968 215.956 9.68007C215.782 9.30114 215.654 8.92221 215.563 8.54328C215.471 8.15979 215.426 7.7489 215.426 7.31519C215.426 6.5482 215.567 5.80403 215.846 5.07813C216.12 4.35223 216.517 3.70395 217.02 3.1424C217.531 2.57629 218.134 2.13344 218.842 1.8093C219.56 1.48516 220.313 1.3208 221.108 1.3208H225.009H225.004Z" fill="white"/>
<path d="M229.563 12.858H226.406L227.475 3.42128C227.502 3.13366 227.544 2.87799 227.589 2.65885C227.635 2.43972 227.699 2.23884 227.772 2.06079C227.914 1.71838 228.156 1.43989 228.498 1.22532C228.658 1.13401 228.864 1.0564 229.11 1.00161C229.362 0.946826 229.649 0.919434 229.96 0.919434C230.81 0.919434 231.403 1.12488 231.746 1.52663C232.093 1.93295 232.312 2.45341 232.408 3.08344L233.418 8.72172H233.495L234.477 3.01496C234.605 2.2434 234.893 1.70468 235.336 1.38967C235.779 1.07466 236.35 0.919434 237.049 0.919434C237.748 0.919434 238.337 1.10205 238.739 1.46728C239.095 1.82338 239.324 2.38037 239.424 3.14735L240.502 12.8899H237.392L236.78 3.38932L235.089 11.5158C235.039 11.8764 234.884 12.228 234.633 12.5795C234.381 12.9219 234.016 13.0999 233.532 13.0999C233.098 13.0999 232.723 12.9812 232.426 12.7484C232.125 12.5156 231.938 12.2097 231.865 11.8353L230.106 3.43954L229.563 12.8625V12.858Z" fill="white"/>
</svg>
