<svg width="260" height="45" viewBox="0 0 260 45" fill="none" xmlns="http://www.w3.org/2000/svg">
<g clip-path="url(#clip0_1_11)">
<path d="M4.618 35V10.044H9.412V20.142H21.414V10.044H26.208V35H21.414V24.222H9.412V35H4.618ZM30.8341 35V16.878H35.4241V35H30.8341ZM33.1461 14.464C31.5481 14.464 30.4601 13.41 30.4601 11.982C30.4601 10.52 31.5481 9.5 33.1461 9.5C34.7441 9.5 35.8321 10.52 35.8321 11.982C35.8321 13.41 34.7441 14.464 33.1461 14.464ZM46.6417 35.408C43.1057 35.408 40.6917 33.572 40.6917 29.458V20.686H38.0057V17.388L40.6917 16.946V12.832L45.2477 11.506V16.878H49.9057V20.686H45.2817V28.948C45.2817 30.784 46.1997 31.566 47.6957 31.566C48.4777 31.566 49.2937 31.362 49.9057 31.09V34.864C49.0217 35.17 47.8657 35.408 46.6417 35.408ZM58.121 35.408C54.279 35.408 51.933 33.232 51.933 30.002C51.933 26.568 54.619 25.004 58.869 24.29L63.357 23.576C63.289 20.992 61.963 20.04 59.515 20.04C57.475 20.04 55.299 20.652 53.429 21.672V17.966C55.197 17.082 57.475 16.47 59.991 16.47C64.853 16.47 67.913 18.85 67.913 23.678V30.512C67.913 31.6 68.287 32.178 69.341 32.178C69.749 32.178 70.191 32.076 70.633 31.974V34.966C69.715 35.272 68.797 35.408 67.947 35.408C65.737 35.408 64.513 34.49 63.901 32.824H63.459L61.283 34.898C60.297 35.238 59.209 35.408 58.121 35.408ZM59.481 31.872C60.841 31.872 62.167 31.498 63.357 30.818V26.466L59.617 27.078C57.577 27.452 56.557 28.132 56.557 29.594C56.557 31.056 57.577 31.872 59.481 31.872ZM81.8817 35.408C75.8637 35.408 71.9537 31.362 71.9537 25.956C71.9537 20.516 75.8637 16.47 81.8817 16.47C83.7517 16.47 85.4517 16.844 86.9817 17.558V21.536C85.7917 20.856 84.2617 20.346 82.4937 20.346C78.8897 20.346 76.6117 22.454 76.6117 25.956C76.6117 29.458 78.8897 31.532 82.4937 31.532C84.2277 31.532 85.7917 31.056 86.9817 30.342V34.32C85.4517 35.034 83.7517 35.408 81.8817 35.408ZM90.2677 35V10.044H94.8577V18.748H95.1977L97.0677 16.98C98.0197 16.708 99.1077 16.47 100.332 16.47C104.344 16.47 107.098 18.952 107.098 23.372V35H102.508V24.12C102.508 21.4 101.148 20.346 98.8697 20.346C97.3057 20.346 95.8777 20.856 94.8577 21.434V35H90.2677ZM110.953 35V16.878H115.543V35H110.953ZM113.265 14.464C111.667 14.464 110.579 13.41 110.579 11.982C110.579 10.52 111.667 9.5 113.265 9.5C114.863 9.5 115.951 10.52 115.951 11.982C115.951 13.41 114.863 14.464 113.265 14.464ZM136.427 35L127.281 10.044H132.517L139.181 29.56H139.453L146.287 10.044H151.353L142.139 35H136.427ZM156.801 35.408C152.959 35.408 150.613 33.232 150.613 30.002C150.613 26.568 153.299 25.004 157.549 24.29L162.037 23.576C161.969 20.992 160.643 20.04 158.195 20.04C156.155 20.04 153.979 20.652 152.109 21.672V17.966C153.877 17.082 156.155 16.47 158.671 16.47C163.533 16.47 166.593 18.85 166.593 23.678V30.512C166.593 31.6 166.967 32.178 168.021 32.178C168.429 32.178 168.871 32.076 169.313 31.974V34.966C168.395 35.272 167.477 35.408 166.627 35.408C164.417 35.408 163.193 34.49 162.581 32.824H162.139L159.963 34.898C158.977 35.238 157.889 35.408 156.801 35.408ZM158.161 31.872C159.521 31.872 160.847 31.498 162.037 30.818V26.466L158.297 27.078C156.257 27.452 155.237 28.132 155.237 29.594C155.237 31.056 156.257 31.872 158.161 31.872ZM171.848 35V16.878H175.588L175.996 19.054H176.404L178.58 16.98C179.498 16.708 180.586 16.47 181.844 16.47C185.924 16.47 188.678 18.952 188.678 23.372V35H184.088V24.12C184.088 21.434 182.728 20.346 180.416 20.346C178.886 20.346 177.458 20.856 176.438 21.4V35H171.848ZM199.542 35.408C196.006 35.408 193.592 33.572 193.592 29.458V20.686H190.906V17.388L193.592 16.946V12.832L198.148 11.506V16.878H202.806V20.686H198.182V28.948C198.182 30.784 199.1 31.566 200.596 31.566C201.378 31.566 202.194 31.362 202.806 31.09V34.864C201.922 35.17 200.766 35.408 199.542 35.408ZM211.021 35.408C207.179 35.408 204.833 33.232 204.833 30.002C204.833 26.568 207.519 25.004 211.769 24.29L216.257 23.576C216.189 20.992 214.863 20.04 212.415 20.04C210.375 20.04 208.199 20.652 206.329 21.672V17.966C208.097 17.082 210.375 16.47 212.891 16.47C217.753 16.47 220.813 18.85 220.813 23.678V30.512C220.813 31.6 221.187 32.178 222.241 32.178C222.649 32.178 223.091 32.076 223.533 31.974V34.966C222.615 35.272 221.697 35.408 220.847 35.408C218.637 35.408 217.413 34.49 216.801 32.824H216.359L214.183 34.898C213.197 35.238 212.109 35.408 211.021 35.408ZM212.381 31.872C213.741 31.872 215.067 31.498 216.257 30.818V26.466L212.517 27.078C210.477 27.452 209.457 28.132 209.457 29.594C209.457 31.056 210.477 31.872 212.381 31.872ZM226.069 35V16.878H229.809L230.217 19.054H230.591L232.767 17.048C233.821 16.708 235.419 16.504 236.643 16.47V20.584C234.467 20.652 232.529 20.958 230.659 21.502V35H226.069ZM243.693 35.408C239.851 35.408 237.505 33.232 237.505 30.002C237.505 26.568 240.191 25.004 244.441 24.29L248.929 23.576C248.861 20.992 247.535 20.04 245.087 20.04C243.047 20.04 240.871 20.652 239.001 21.672V17.966C240.769 17.082 243.047 16.47 245.563 16.47C250.425 16.47 253.485 18.85 253.485 23.678V30.512C253.485 31.6 253.859 32.178 254.913 32.178C255.321 32.178 255.763 32.076 256.205 31.974V34.966C255.287 35.272 254.369 35.408 253.519 35.408C251.309 35.408 250.085 34.49 249.473 32.824H249.031L246.855 34.898C245.869 35.238 244.781 35.408 243.693 35.408ZM245.053 31.872C246.413 31.872 247.739 31.498 248.929 30.818V26.466L245.189 27.078C243.149 27.452 242.129 28.132 242.129 29.594C242.129 31.056 243.149 31.872 245.053 31.872Z" fill="black"/>
</g>
<defs>
<clipPath id="clip0_1_11">
<rect width="260" height="45" fill="white"/>
</clipPath>
</defs>
</svg>
